<svg width="14" height="14" viewBox="0 0 14 14" fill="none" xmlns="http://www.w3.org/2000/svg">
<g clip-path="url(#clip0_1_1897)">
<path d="M5.86511 1.22155C6.51914 0.664149 7.48117 0.664143 8.13527 1.22155L8.9216 1.89166C9.01499 1.97128 9.13113 2.01938 9.25352 2.02915L10.2834 2.11134C11.14 2.17969 11.8203 2.85996 11.8887 3.71659L11.9709 4.74645C11.9806 4.8688 12.0287 4.98497 12.1083 5.0784L12.7784 5.86476C13.3359 6.5188 13.3359 7.48083 12.7784 8.13492L12.1083 8.9212C12.0287 9.01465 11.9805 9.13085 11.9708 9.25323L11.8887 10.283C11.8203 11.1397 11.14 11.82 10.2834 11.8883L9.25352 11.9705C9.13113 11.9803 9.01499 12.0284 8.9216 12.108L8.13527 12.7781C7.48117 13.3355 6.51914 13.3355 5.86505 12.7781L5.07872 12.108C4.98529 12.0284 4.86915 11.9803 4.7468 11.9705L3.71695 11.8883C2.8603 11.8199 2.18005 11.1397 2.11169 10.283L2.02949 9.25323C2.01973 9.13085 1.97161 9.01471 1.892 8.92126L1.22189 8.13486C0.664486 7.48083 0.66448 6.51886 1.22188 5.86476L1.89199 5.07843C1.97161 4.985 2.01974 4.8688 2.0295 4.74644L2.11168 3.71658C2.18004 2.85994 2.86028 2.1797 3.71692 2.11134L4.74679 2.02916C4.86915 2.01939 4.98532 1.97128 5.07875 1.89166L5.86511 1.22155ZM7.37851 2.10951C7.16051 1.92372 6.8398 1.92371 6.62181 2.10951L5.83547 2.77963C5.55518 3.01848 5.20669 3.16283 4.83959 3.19212L3.80973 3.27431C3.52418 3.2971 3.29744 3.52384 3.27465 3.8094L3.19246 4.83928C3.16317 5.20636 3.01882 5.55483 2.77997 5.83513L2.10986 6.62146C1.92406 6.83946 1.92405 7.16017 2.10986 7.37816L2.77997 8.1645C3.01883 8.44479 3.16317 8.79333 3.19248 9.16037L3.27466 10.1902C3.29744 10.4758 3.52418 10.7026 3.80974 10.7253L4.83958 10.8075C5.20666 10.8368 5.55518 10.9812 5.83547 11.2201L6.62181 11.8901C6.83986 12.0759 7.16051 12.0759 7.37851 11.8901L8.1649 11.22C8.44513 10.9812 8.79362 10.8368 9.16071 10.8075L10.1906 10.7253C10.4761 10.7025 10.7029 10.4758 10.7257 10.1902L10.8079 9.16037C10.8371 8.79327 10.9815 8.44479 11.2204 8.16456L11.8905 7.37816C12.0763 7.16017 12.0763 6.83951 11.8905 6.62146L11.2203 5.83513C10.9815 5.55483 10.8371 5.20635 10.8079 4.83926L10.7257 3.8094C10.7029 3.52385 10.4761 3.2971 10.1906 3.27431L9.16071 3.19213C8.79367 3.16284 8.44513 3.01848 8.16484 2.77962L7.37851 2.10951ZM8.64994 4.52501L9.47489 5.34997L5.35011 9.47478L4.52515 8.64977L8.64994 4.52501ZM5.96882 5.96866C5.62711 6.31037 5.0731 6.31037 4.73139 5.96866C4.38968 5.627 4.38968 5.07296 4.73139 4.73125C5.0731 4.38954 5.62711 4.38954 5.96882 4.73125C6.31054 5.07296 6.31054 5.627 5.96882 5.96866ZM8.0312 9.26851C8.37292 9.61023 8.92691 9.61023 9.26862 9.26851C9.61034 8.9268 9.61034 8.37281 9.26862 8.03109C8.92691 7.68937 8.37292 7.68937 8.0312 8.03109C7.68948 8.37281 7.68948 8.9268 8.0312 9.26851Z" fill="black"/>
</g>
<defs>
<clipPath id="clip0_1_1897">
<rect width="14" height="14" fill="white"/>
</clipPath>
</defs>
</svg>
