<svg width="272" height="88" viewBox="0 0 272 88" fill="none" xmlns="http://www.w3.org/2000/svg">
<g filter="url(#filter0_d_265_1824)">
<mask id="path-1-inside-1_265_1824" fill="white">
<path d="M260.081 2.34302C263.963 2.3432 267.11 5.49031 267.11 9.37231V33.5842C262.797 33.5842 259.3 37.0805 259.299 41.3938C259.299 45.5725 262.581 48.9854 266.708 49.1946L267.11 49.2043V73.4163C267.11 77.2981 263.962 80.4454 260.081 80.4456H11.7153C7.8333 80.4456 4.68617 77.2983 4.68604 73.4163V49.2043C8.99941 49.2042 12.4956 45.7072 12.4956 41.3938C12.4954 37.2152 9.21413 33.803 5.0874 33.594L4.68604 33.5842V9.37231C4.68604 5.4902 7.83321 2.34302 11.7153 2.34302H260.081Z"/>
</mask>
<path d="M260.081 2.34302C263.963 2.3432 267.11 5.49031 267.11 9.37231V33.5842C262.797 33.5842 259.3 37.0805 259.299 41.3938C259.299 45.5725 262.581 48.9854 266.708 49.1946L267.11 49.2043V73.4163C267.11 77.2981 263.962 80.4454 260.081 80.4456H11.7153C7.8333 80.4456 4.68617 77.2983 4.68604 73.4163V49.2043C8.99941 49.2042 12.4956 45.7072 12.4956 41.3938C12.4954 37.2152 9.21413 33.803 5.0874 33.594L4.68604 33.5842V9.37231C4.68604 5.4902 7.83321 2.34302 11.7153 2.34302H260.081Z" fill="white"/>
<path d="M260.081 2.34302L260.081 1.562H260.081V2.34302ZM267.11 33.5842V34.3652H267.891V33.5842H267.11ZM259.299 41.3938L258.518 41.3938V41.3938H259.299ZM266.708 49.1946L266.668 49.9746L266.678 49.9751L266.689 49.9754L266.708 49.1946ZM267.11 49.2043H267.891V48.4421L267.129 48.4236L267.11 49.2043ZM267.11 73.4163L267.891 73.4163V73.4163H267.11ZM260.081 80.4456V81.2266H260.081L260.081 80.4456ZM4.68604 73.4163H3.90501V73.4163L4.68604 73.4163ZM4.68604 49.2043L4.68602 48.4233L3.90501 48.4233V49.2043H4.68604ZM12.4956 41.3938H13.2766V41.3938L12.4956 41.3938ZM5.0874 33.594L5.12691 32.814L5.11666 32.8135L5.1064 32.8132L5.0874 33.594ZM4.68604 33.5842H3.90501V34.3465L4.66704 34.365L4.68604 33.5842ZM260.081 2.34302L260.081 3.12404C263.531 3.1242 266.329 5.92169 266.329 9.37231H267.11H267.891C267.891 5.05892 264.394 1.56219 260.081 1.562L260.081 2.34302ZM267.11 9.37231H266.329V33.5842H267.11H267.891V9.37231H267.11ZM267.11 33.5842V32.8032C262.365 32.8032 258.519 36.6491 258.518 41.3938L259.299 41.3938L260.08 41.3938C260.081 37.512 263.228 34.3652 267.11 34.3652V33.5842ZM259.299 41.3938H258.518C258.518 45.9905 262.128 49.7444 266.668 49.9746L266.708 49.1946L266.747 48.4146C263.034 48.2263 260.08 45.1545 260.08 41.3938H259.299ZM266.708 49.1946L266.689 49.9754L267.091 49.9851L267.11 49.2043L267.129 48.4236L266.726 48.4138L266.708 49.1946ZM267.11 49.2043H266.329V73.4163H267.11H267.891V49.2043H267.11ZM267.11 73.4163L266.329 73.4162C266.329 76.8668 263.531 79.6644 260.081 79.6645L260.081 80.4456L260.081 81.2266C264.394 81.2264 267.891 77.7295 267.891 73.4163L267.11 73.4163ZM260.081 80.4456V79.6645H11.7153V80.4456V81.2266H260.081V80.4456ZM11.7153 80.4456V79.6645C8.26467 79.6645 5.46718 76.8669 5.46706 73.4162L4.68604 73.4163L3.90501 73.4163C3.90516 77.7296 7.40192 81.2266 11.7153 81.2266V80.4456ZM4.68604 73.4163H5.46706V49.2043H4.68604H3.90501V73.4163H4.68604ZM4.68604 49.2043L4.68605 49.9854C9.43087 49.9852 13.2766 46.1384 13.2766 41.3938H12.4956H11.7146C11.7146 45.276 8.56795 48.4232 4.68602 48.4233L4.68604 49.2043ZM12.4956 41.3938L13.2766 41.3938C13.2764 36.7971 9.66703 33.0439 5.12691 32.814L5.0874 33.594L5.0479 34.374C8.76122 34.5621 11.7144 37.6332 11.7146 41.3938L12.4956 41.3938ZM5.0874 33.594L5.1064 32.8132L4.70503 32.8034L4.68604 33.5842L4.66704 34.365L5.06841 34.3748L5.0874 33.594ZM4.68604 33.5842H5.46706V9.37231H4.68604H3.90501V33.5842H4.68604ZM4.68604 9.37231H5.46706C5.46706 5.92154 8.26456 3.12404 11.7153 3.12404V2.34302V1.562C7.40187 1.562 3.90501 5.05885 3.90501 9.37231H4.68604ZM11.7153 2.34302V3.12404H260.081V2.34302V1.562H11.7153V2.34302Z" fill="#0C6C44" mask="url(#path-1-inside-1_265_1824)"/>
</g>
<defs>
<filter id="filter0_d_265_1824" x="-9.58443e-05" y="-4.79221e-05" width="271.796" height="87.4748" filterUnits="userSpaceOnUse" color-interpolation-filters="sRGB">
<feFlood flood-opacity="0" result="BackgroundImageFix"/>
<feColorMatrix in="SourceAlpha" type="matrix" values="0 0 0 0 0 0 0 0 0 0 0 0 0 0 0 0 0 0 127 0" result="hardAlpha"/>
<feOffset dy="2.34307"/>
<feGaussianBlur stdDeviation="2.34307"/>
<feColorMatrix type="matrix" values="0 0 0 0 0 0 0 0 0 0 0 0 0 0 0 0 0 0 0.160784 0"/>
<feBlend mode="normal" in2="BackgroundImageFix" result="effect1_dropShadow_265_1824"/>
<feBlend mode="normal" in="SourceGraphic" in2="effect1_dropShadow_265_1824" result="shape"/>
</filter>
</defs>
</svg>
