<svg width="56" height="56" viewBox="0 0 56 56" fill="none" xmlns="http://www.w3.org/2000/svg">
<path d="M24.4775 4.03613C26.381 2.13269 29.4677 2.13269 31.3711 4.03613C32.813 5.4778 34.9143 6.04038 36.8838 5.5127C39.4838 4.81605 42.1574 6.3599 42.8545 8.95996C43.3824 10.929 44.9205 12.4674 46.8896 12.9951C49.4897 13.6918 51.033 16.3649 50.3359 18.9648C49.808 20.9342 50.3709 23.0357 51.8125 24.4775C53.7158 26.3808 53.7158 29.4678 51.8125 31.3711C50.3709 32.813 49.808 34.9144 50.3359 36.8838C51.033 39.4837 49.4897 42.1569 46.8896 42.8535C44.9205 43.3812 43.3824 44.9196 42.8545 46.8887C42.1574 49.4887 39.4838 51.0326 36.8838 50.3359C34.9143 49.8082 32.813 50.3708 31.3711 51.8125C29.4677 53.7159 26.381 53.7159 24.4775 51.8125C23.0357 50.3709 20.9343 49.8073 18.9648 50.335C16.3648 51.0316 13.6918 49.4887 12.9951 46.8887C12.4673 44.9194 10.9293 43.3813 8.95996 42.8535C6.35992 42.1569 4.81608 39.4838 5.5127 36.8838C6.0404 34.9143 5.47781 32.8129 4.03613 31.3711C2.13269 29.4677 2.13269 26.381 4.03613 24.4775C5.47782 23.0357 6.0404 20.9343 5.5127 18.9648C4.81606 16.3648 6.35991 13.6918 8.95996 12.9951C10.9293 12.4673 12.4673 10.9293 12.9951 8.95996C13.6918 6.3599 16.3648 4.81605 18.9648 5.5127C20.9344 6.0404 23.0357 5.47782 24.4775 4.03613Z" fill="#E6FFF8" stroke="#10847E" stroke-width="0.833561"/>
<g clip-path="url(#clip0_471_1902)">
<path fill-rule="evenodd" clip-rule="evenodd" d="M27.0609 15.8374C28.2594 16.6137 29.5099 17.3048 30.8034 17.9057C30.4451 18.3595 30.1455 18.8577 29.912 19.3881C28.933 18.9039 27.9818 18.3644 27.0629 17.7721C24.2769 19.9596 21.0717 21.0472 17.5734 20.856C17.3089 31.0372 21.0717 36.6871 27.0996 38.9034C31.4118 37.2586 34.5194 33.9444 35.8727 28.8743H36.0274C36.542 28.8748 37.0548 28.8147 37.5557 28.6955C36.0253 34.8737 32.3643 38.8335 27.0996 40.8381C19.8344 38.1632 15.5343 31.5965 15.8538 19.3326C19.6756 19.5382 23.4263 18.6993 27.0609 15.8477V15.8374Z" fill="#10847E"/>
<path fill-rule="evenodd" clip-rule="evenodd" d="M24.0389 26.7525H24.3441V26.072C24.3425 25.3159 24.6297 24.5882 25.1459 24.0407C25.3959 23.7707 25.6981 23.5554 26.0338 23.4082C26.3695 23.261 26.7316 23.1851 27.0976 23.1851C27.4635 23.1851 27.8256 23.261 28.1613 23.4082C28.497 23.5554 28.7992 23.7707 29.0492 24.0407C29.5704 24.5859 29.8622 25.314 29.8632 26.072V26.7525H30.1664C30.2857 26.7525 30.4001 26.8004 30.4845 26.8856C30.5688 26.9708 30.6162 27.0864 30.6162 27.2069V32.0076C30.6156 32.128 30.5681 32.2432 30.4839 32.3283C30.3996 32.4134 30.2855 32.4615 30.1664 32.462H24.0389C23.9197 32.4615 23.8057 32.4134 23.7214 32.3283C23.6372 32.2432 23.5896 32.128 23.5891 32.0076V27.2069C23.5891 27.0864 23.6365 26.9708 23.7208 26.8856C23.8052 26.8004 23.9196 26.7525 24.0389 26.7525ZM25.1948 26.7525H29.0024V26.072C29.0057 25.5367 28.8037 25.0209 28.4387 24.6328C28.2673 24.447 28.0598 24.2988 27.8293 24.1974C27.5987 24.0961 27.35 24.0438 27.0986 24.0438C26.8471 24.0438 26.5984 24.0961 26.3679 24.1974C26.1373 24.2988 25.9299 24.447 25.7585 24.6328C25.3935 25.0209 25.1914 25.5367 25.1948 26.072V26.7525ZM26.7292 29.818L26.2449 31.103H27.9523L27.5025 29.7995C27.68 29.7069 27.8211 29.5562 27.9029 29.3721C27.9847 29.188 28.0022 28.9813 27.9528 28.7858C27.9033 28.5902 27.7897 28.4175 27.6305 28.2956C27.4712 28.1737 27.2759 28.11 27.0762 28.1147C26.8765 28.1195 26.6843 28.1925 26.531 28.3219C26.3776 28.4512 26.2722 28.6293 26.232 28.8269C26.1917 29.0246 26.219 29.2302 26.3093 29.4102C26.3996 29.5902 26.5476 29.734 26.7292 29.818Z" fill="#10847E"/>
<path fill-rule="evenodd" clip-rule="evenodd" d="M36.0314 17.2603C36.9833 17.2603 37.9139 17.5454 38.7053 18.0797C39.4968 18.614 40.1137 19.3734 40.478 20.2619C40.8423 21.1504 40.9376 22.128 40.7519 23.0712C40.5662 24.0145 40.1078 24.8808 39.4347 25.5609C38.7616 26.2409 37.904 26.704 36.9704 26.8916C36.0368 27.0792 35.069 26.9829 34.1896 26.6149C33.3102 26.2469 32.5585 25.6236 32.0296 24.824C31.5008 24.0244 31.2185 23.0843 31.2185 22.1226C31.2185 20.8331 31.7256 19.5963 32.6282 18.6844C33.5308 17.7725 34.755 17.2603 36.0314 17.2603ZM34.9244 22.0054C35.0628 22.1226 35.1927 22.2498 35.313 22.3858C35.6814 21.7891 36.0893 21.2183 36.5341 20.6773C37.7551 19.2011 37.1955 19.4869 38.8744 19.4869L38.6302 19.7542C38.0618 20.4054 37.5453 21.1011 37.0856 21.8348C36.5033 22.6848 35.9751 23.5713 35.5043 24.4891L35.3599 24.7728L35.2255 24.485C34.9885 23.9617 34.6884 23.47 34.3321 23.0211C34.0108 22.6115 33.6276 22.2556 33.1966 21.9664C33.4143 21.2406 34.4563 21.6128 34.9223 22.0116L34.9244 22.0054Z" fill="#10847E"/>
</g>
<defs>
<clipPath id="clip0_471_1902">
<rect width="25.0068" height="25.0068" fill="white" transform="translate(15.8376 15.8374)"/>
</clipPath>
</defs>
</svg>
