<svg width="56" height="56" viewBox="0 0 56 56" fill="none" xmlns="http://www.w3.org/2000/svg">
<path d="M24.4775 4.03613C26.381 2.13269 29.4677 2.13269 31.3711 4.03613C32.813 5.4778 34.9143 6.04038 36.8838 5.5127C39.4838 4.81605 42.1574 6.3599 42.8545 8.95996C43.3824 10.929 44.9205 12.4674 46.8896 12.9951C49.4897 13.6918 51.033 16.3649 50.3359 18.9648C49.808 20.9342 50.3709 23.0357 51.8125 24.4775C53.7158 26.3808 53.7158 29.4678 51.8125 31.3711C50.3709 32.813 49.808 34.9144 50.3359 36.8838C51.033 39.4837 49.4897 42.1569 46.8896 42.8535C44.9205 43.3812 43.3824 44.9196 42.8545 46.8887C42.1574 49.4887 39.4838 51.0326 36.8838 50.3359C34.9143 49.8082 32.813 50.3708 31.3711 51.8125C29.4677 53.7159 26.381 53.7159 24.4775 51.8125C23.0357 50.3709 20.9343 49.8073 18.9648 50.335C16.3648 51.0316 13.6918 49.4887 12.9951 46.8887C12.4673 44.9194 10.9293 43.3813 8.95996 42.8535C6.35992 42.1569 4.81608 39.4838 5.5127 36.8838C6.0404 34.9143 5.47781 32.8129 4.03613 31.3711C2.13269 29.4677 2.13269 26.381 4.03613 24.4775C5.47782 23.0357 6.0404 20.9343 5.5127 18.9648C4.81606 16.3648 6.35991 13.6918 8.95996 12.9951C10.9293 12.4673 12.4673 10.9293 12.9951 8.95996C13.6918 6.3599 16.3648 4.81605 18.9648 5.5127C20.9344 6.0404 23.0357 5.47782 24.4775 4.03613Z" fill="#E6FFF8" stroke="#10847E" stroke-width="0.833561"/>
<g clip-path="url(#clip0_471_1908)">
<path d="M36.7646 23.363C36.7599 23.408 36.7455 23.4507 36.7239 23.4933C36.7 23.5928 36.688 23.7066 36.688 23.8321C36.688 23.844 36.6904 23.8558 36.6904 23.8677V32.099C36.7958 32.3573 36.9251 32.5516 37.0807 32.6724C37.2243 32.7862 37.4015 32.8407 37.617 32.8312C37.6313 32.8288 37.6481 32.8288 37.6625 32.8288H40.0471C40.0519 32.8288 40.059 32.8288 40.0662 32.8288C40.4373 32.8478 40.7055 32.7482 40.885 32.5445C41.0885 32.3123 41.2059 31.9403 41.2466 31.4403V31.4332L41.972 24.0075C41.972 23.9956 41.972 23.9838 41.9744 23.9719C42.0247 23.5502 41.9313 23.2753 41.7206 23.1142C41.4788 22.9294 41.079 22.8536 40.5594 22.8536C40.5475 22.8536 40.5355 22.8559 40.5235 22.8559H37.8372V22.8536C37.4278 22.8536 37.1262 22.9341 36.9418 23.1C36.8652 23.1687 36.8077 23.2564 36.7646 23.363ZM34.1358 32.4687C34.0784 32.4142 34.0377 32.3431 34.0209 32.2649L30.1902 25.441C29.764 24.7372 29.381 24.7207 29.0099 24.9386C28.7465 25.0927 28.4688 25.3438 28.191 25.595C28.0235 25.7466 27.8559 25.8983 27.7146 26.0144L27.0562 26.5522L27.0514 26.5546C26.5726 26.9361 26.0315 27.1422 25.5191 27.1825C25.1815 27.2109 24.8559 27.1683 24.5591 27.0569C24.255 26.9432 23.9868 26.7607 23.7857 26.5119C23.5679 26.2442 23.4242 25.903 23.3907 25.5002H23.3931C23.3859 25.4031 23.4146 25.3059 23.4817 25.2253L25.5742 22.7612C25.1337 22.754 24.7434 22.8133 24.3771 22.927C23.8193 23.1 23.2973 23.3985 22.7275 23.7847C22.6629 23.8345 22.5791 23.8653 22.4905 23.8653H20.0795V28.3743L20.0891 31.2579H21.4921C21.6262 31.2579 21.7555 31.3266 21.8249 31.4498L23.5679 34.4566C23.8216 34.8949 24.0467 35.274 24.3268 35.5228C24.5902 35.7574 24.9349 35.9019 25.4665 35.9162C25.6652 35.9209 25.8567 35.8877 26.0363 35.8143C26.1464 35.7693 26.2565 35.7077 26.3643 35.6295L25.2342 33.5396C25.1337 33.3548 25.2055 33.125 25.3922 33.0278C25.579 32.9283 25.8112 32.9994 25.9094 33.1842L27.1376 35.4565C27.5949 35.6863 28.0091 35.7574 28.3802 35.6792C28.7202 35.6058 29.041 35.4044 29.3427 35.0774L27.5733 32.3289C27.4608 32.1535 27.5111 31.919 27.6907 31.8052C27.8678 31.6939 28.1049 31.7436 28.2198 31.9213L30.0825 34.8168C30.4105 34.9494 30.7241 34.9779 31.0234 34.8973C31.3083 34.8191 31.5956 34.639 31.8805 34.3452L30.1926 31.1987C30.092 31.0138 30.1639 30.7816 30.353 30.6845C30.5397 30.585 30.7744 30.6561 30.8725 30.8432L32.6203 34.0988C32.8477 34.2291 33.1111 34.2623 33.3625 34.222C33.5828 34.1865 33.7958 34.0917 33.9706 33.9567C34.1382 33.824 34.2699 33.6534 34.3321 33.4591C34.4016 33.2482 34.3944 33.0018 34.2819 32.734L34.1358 32.4687ZM34.6434 31.81H35.9219V23.8677C35.9219 23.8582 35.9219 23.8463 35.9243 23.8369C35.9243 23.7137 35.9315 23.5952 35.9482 23.4838L34.6458 22.6285C34.6386 22.6237 34.6314 22.619 34.6242 22.6143C34.4542 22.5029 34.2507 22.3607 34.0472 22.2186C33.3074 21.7068 32.5485 21.1784 31.7273 20.9651C31.2843 20.849 30.772 20.7732 30.25 20.7637C29.7928 20.7543 29.3283 20.7969 28.8901 20.9106C28.6292 20.977 28.3754 21.0694 28.1408 21.1926C27.9325 21.3016 27.7385 21.4343 27.5662 21.5954L26.6947 22.6214C26.6683 22.6735 26.63 22.7161 26.5845 22.7517L24.1808 25.5855C24.2167 25.7656 24.2885 25.9172 24.3867 26.0404C24.5016 26.1802 24.6548 26.2845 24.8296 26.3508C25.0163 26.4195 25.2318 26.4456 25.4569 26.4266C25.8232 26.3958 26.2158 26.2466 26.5678 25.967L27.2262 25.4291C27.3938 25.2917 27.535 25.1637 27.6763 25.0382C27.9851 24.7586 28.2916 24.4814 28.6172 24.2894C29.3666 23.8463 30.1136 23.8321 30.851 25.0571L30.8582 25.069L34.6434 31.81ZM36.0655 32.5705H35.0432C35.1821 32.971 35.1749 33.3501 35.0648 33.6865C34.9522 34.0325 34.732 34.3263 34.4495 34.549C34.1741 34.7646 33.8389 34.9139 33.487 34.9708C33.1446 35.0276 32.7855 34.9968 32.4503 34.8594C32.0625 35.2598 31.653 35.5134 31.2269 35.6295C30.7983 35.7456 30.365 35.7219 29.9268 35.5702C29.5102 36.0275 29.0506 36.3142 28.543 36.4208C28.0258 36.5322 27.4776 36.454 26.8958 36.1839C26.7138 36.3237 26.5247 36.4351 26.326 36.5156C26.0459 36.6317 25.7514 36.6839 25.4425 36.6744C24.7051 36.653 24.2095 36.4374 23.8145 36.0868C23.4362 35.7527 23.1848 35.3262 22.8975 34.8333L21.267 32.0185H20.0029C19.9287 32.381 19.8018 32.689 19.6103 32.9354C19.2871 33.3477 18.8154 33.5657 18.1594 33.5515C18.1522 33.5515 18.145 33.5515 18.1378 33.5515H15.9711C15.4252 33.6392 14.9584 33.5065 14.592 33.0871C14.2664 32.7151 14.0462 32.1109 13.9504 31.2247C13.948 31.2152 13.948 31.2034 13.9456 31.1915L13.3758 24.2018C13.2633 23.4483 13.3878 22.9152 13.6942 22.5503C14.0031 22.183 14.4699 22.0172 15.0422 21.9911C15.0589 21.9887 15.0733 21.9887 15.09 21.9887H18.0086V21.9911C18.5592 21.984 19.0333 22.0764 19.3924 22.3062C19.6821 22.491 19.8904 22.7517 19.9957 23.1071H22.3732C22.9717 22.709 23.5296 22.3963 24.1473 22.2043C24.7554 22.0172 25.4042 21.9508 26.1823 22.0432L26.9844 21.1049C26.9987 21.086 27.0131 21.0694 27.0323 21.0528C27.2597 20.8396 27.5135 20.6642 27.7864 20.5221C28.0737 20.3728 28.3802 20.259 28.701 20.1761C29.2086 20.0458 29.7425 19.996 30.2644 20.0055C30.8558 20.0174 31.4304 20.1027 31.926 20.2306C32.8741 20.4794 33.6929 21.0457 34.4878 21.5978C34.6649 21.721 34.8421 21.8442 35.0528 21.9816C35.06 21.9864 35.0672 21.9911 35.0743 21.9958L36.2283 22.7588C36.2858 22.6782 36.3528 22.6048 36.4295 22.5384C36.7599 22.2446 37.2315 22.1001 37.8396 22.1001V22.0977H40.5259C40.5355 22.0977 40.5475 22.0977 40.557 22.1001C41.2442 22.0977 41.8044 22.2209 42.1923 22.5171C42.6232 22.8465 42.8267 23.3464 42.7405 24.0643C42.7405 24.0714 42.7381 24.0762 42.7381 24.0833L42.0127 31.5019C41.96 32.1654 41.7805 32.6843 41.4644 33.0444C41.1269 33.4283 40.66 33.6178 40.0471 33.5918H37.6625H37.6601C37.2483 33.6131 36.8963 33.5017 36.6018 33.2695C36.3864 33.0966 36.2068 32.8644 36.0655 32.5705ZM16.6894 29.687C16.9767 29.687 17.2089 29.9168 17.2089 30.2011C17.2089 30.4855 16.9767 30.7153 16.6894 30.7153C16.4021 30.7153 16.1698 30.4855 16.1698 30.2011C16.1698 29.9168 16.4021 29.687 16.6894 29.687ZM39.3025 29.687C39.5898 29.687 39.822 29.9168 39.822 30.2011C39.822 30.4855 39.5898 30.7153 39.3025 30.7153C39.0152 30.7153 38.7829 30.4855 38.7829 30.2011C38.7829 29.9168 39.0152 29.687 39.3025 29.687ZM19.311 27.4976L19.2966 23.4862C19.2966 23.4791 19.2966 23.472 19.2966 23.4625C19.2559 23.2113 19.1458 23.0431 18.983 22.9389C18.7603 22.7967 18.4275 22.7422 18.0181 22.7469H18.0133V22.7493H15.0924C15.0876 22.7493 15.0829 22.7493 15.0781 22.7493C14.7165 22.7659 14.4412 22.8512 14.2856 23.036C14.118 23.2327 14.0605 23.5739 14.1395 24.1022C14.1419 24.1141 14.1419 24.1236 14.1419 24.1354L14.7118 31.1323V31.1442C14.7884 31.8692 14.9464 32.3336 15.169 32.5895C15.3462 32.7933 15.588 32.8501 15.8777 32.798C15.8993 32.7933 15.9232 32.7909 15.9448 32.7909V32.7885H18.1354C18.1498 32.7885 18.1642 32.7885 18.1761 32.7909C18.564 32.798 18.8322 32.6843 18.9997 32.4687C19.1961 32.2175 19.2918 31.8242 19.3062 31.3171H19.3038V27.4976H19.311Z" fill="#10847E"/>
</g>
<defs>
<clipPath id="clip0_471_1908">
<rect width="29.4198" height="16.6712" fill="white" transform="translate(13.3372 20.0054)"/>
</clipPath>
</defs>
</svg>
