<svg width="56" height="56" viewBox="0 0 56 56" fill="none" xmlns="http://www.w3.org/2000/svg">
<path d="M24.4775 4.03613C26.381 2.13269 29.4677 2.13269 31.3711 4.03613C32.813 5.4778 34.9143 6.04038 36.8838 5.5127C39.4838 4.81605 42.1574 6.3599 42.8545 8.95996C43.3824 10.929 44.9205 12.4674 46.8896 12.9951C49.4897 13.6918 51.033 16.3649 50.3359 18.9648C49.808 20.9342 50.3709 23.0357 51.8125 24.4775C53.7158 26.3808 53.7158 29.4678 51.8125 31.3711C50.3709 32.813 49.808 34.9144 50.3359 36.8838C51.033 39.4837 49.4897 42.1569 46.8896 42.8535C44.9205 43.3812 43.3824 44.9196 42.8545 46.8887C42.1574 49.4887 39.4838 51.0326 36.8838 50.3359C34.9143 49.8082 32.813 50.3708 31.3711 51.8125C29.4677 53.7159 26.381 53.7159 24.4775 51.8125C23.0357 50.3709 20.9343 49.8073 18.9648 50.335C16.3648 51.0316 13.6918 49.4887 12.9951 46.8887C12.4673 44.9194 10.9293 43.3813 8.95996 42.8535C6.35992 42.1569 4.81608 39.4838 5.5127 36.8838C6.0404 34.9143 5.47781 32.8129 4.03613 31.3711C2.13269 29.4677 2.13269 26.381 4.03613 24.4775C5.47782 23.0357 6.0404 20.9343 5.5127 18.9648C4.81606 16.3648 6.35991 13.6918 8.95996 12.9951C10.9293 12.4673 12.4673 10.9293 12.9951 8.95996C13.6918 6.3599 16.3648 4.81605 18.9648 5.5127C20.9344 6.0404 23.0357 5.47782 24.4775 4.03613Z" fill="#E6FFF8" stroke="#10847E" stroke-width="0.833561"/>
<g clip-path="url(#clip0_471_1913)">
<path d="M38.3074 19.2396C38.4464 19.2164 38.5892 19.2428 38.7104 19.3142C38.8184 19.3597 38.9107 19.4356 38.9758 19.5326C39.0409 19.6295 39.0759 19.7433 39.0767 19.8598L39.1811 34.1969C39.1871 34.3055 39.1631 34.4138 39.1118 34.5099C39.0605 34.606 38.9838 34.6865 38.8898 34.7425L32.9941 38.2254C32.8883 38.3035 32.7596 38.3451 32.6278 38.3436C32.5955 38.3464 32.563 38.3464 32.5307 38.3436L17.2409 36.6467C17.0879 36.6389 16.9438 36.5733 16.8379 36.4634C16.7321 36.3536 16.6724 36.2077 16.6712 36.0556V21.4658C16.6691 21.3468 16.7028 21.2298 16.768 21.13C16.8333 21.0302 16.9272 20.952 17.0376 20.9056L24.7099 17.5537C24.8094 17.5079 24.9199 17.4909 25.0286 17.5046L38.3074 19.2342V19.2396ZM31.483 19.5488L26.9646 22.0951L32.5289 22.8007L36.6499 20.2218L31.483 19.5488ZM26.1715 23.1863L25.9664 29.2572L23.6733 27.7058L21.382 28.9935L21.8454 22.6443L17.8709 22.1405V35.5191L32.0343 37.0832V23.9356L26.1734 23.1918L26.1715 23.1863ZM22.5634 21.5331L26.9499 18.9596L25.0415 18.7086L19.4625 21.142L22.567 21.5367L22.5634 21.5331ZM33.2358 23.7628V36.6977L37.9796 33.8895L37.8843 20.8529L33.2358 23.7628Z" fill="#10847E"/>
</g>
<defs>
<clipPath id="clip0_471_1913">
<rect width="22.5062" height="20.839" fill="white" transform="translate(16.6711 17.5044)"/>
</clipPath>
</defs>
</svg>
