<svg width="24" height="27" viewBox="0 0 24 27" fill="none" xmlns="http://www.w3.org/2000/svg">
<path d="M20.6816 5.93646H17.8149V5.41092C17.8131 3.97645 17.2805 2.60129 16.3339 1.58697C15.3874 0.57265 14.104 0.00195832 12.7654 0H10.8243C9.48449 -1.33975e-06 8.19941 0.56984 7.25135 1.58437C6.30328 2.5989 5.76974 3.97517 5.76791 5.41092V5.93646H2.90814C2.52598 5.93548 2.1474 6.01542 1.79416 6.17168C1.44091 6.32794 1.11997 6.55745 0.849745 6.84701C0.579518 7.13658 0.365345 7.48051 0.21952 7.85904C0.0736955 8.23756 -0.000902743 8.64322 8.24394e-06 9.05273V23.2499C8.24394e-06 24.0764 0.306388 24.869 0.851769 25.4535C1.39715 26.0379 2.13685 26.3662 2.90814 26.3662H20.6816C21.4523 26.3642 22.191 26.0353 22.736 25.4513C23.2809 24.8673 23.5879 24.0758 23.5897 23.2499V9.05273C23.5897 8.22624 23.2833 7.43362 22.738 6.8492C22.1926 6.26479 21.4529 5.93646 20.6816 5.93646ZM7.14944 5.41092C7.15127 4.3678 7.53927 3.36809 8.22824 2.63118C8.91722 1.89428 9.85089 1.48041 10.8243 1.48042H12.7654C13.7382 1.48042 14.6712 1.8945 15.3591 2.63161C16.0469 3.36873 16.4334 4.36848 16.4334 5.41092V5.93646H7.14944V5.41092Z" fill="#10847E" fill-opacity="0.36"/>
<path d="M17.4359 14.7773H13.5379V10.9863H10.0518V14.7773H6.15381V18.1813H10.0518V21.9722H13.5379V18.1813H17.4359V14.7773Z" fill="#DB2730" fill-opacity="0.36"/>
</svg>
