<svg width="15" height="15" viewBox="0 0 15 15" fill="none" xmlns="http://www.w3.org/2000/svg">
<path d="M3.98894 3.73006C4.95124 2.96029 6.17187 2.5 7.5 2.5C8.82812 2.5 10.0487 2.96029 11.0111 3.73006L11.9194 2.8217L12.8033 3.70558L11.8949
 4.61394C12.6647 5.57624 13.125 6.79688 13.125
  8.125C13.125 11.2316 10.6066 13.75 7.5 13.75C4.3934 
  13.75 1.875 11.2316 1.875 8.125C1.875 6.79688 2.33529 5.57624 3.10506 4.61394L2.1967
   3.70558L3.08058 2.8217L3.98894 3.73006ZM8.125 7.5V4.6845L5 8.75H6.875V11.5625L10
    7.5H8.125ZM5 0.625H10V1.875H5V0.625Z" fill="green"/>
    
</svg>